HIERARCHY
ROOT hip
{
  OFFSET 0 90.174 2.4664
  CHANNELS 6 Xposition Yposition Zposition Zrotation Xrotation Yrotation
  JOINT abdomen
  {
    OFFSET 0 -1.186 -1.5018
    CHANNELS 6 Xposition Yposition Zposition Zrotation Xrotation Yrotation
    JOINT abdomen2
    {
      OFFSET 0 9.964 0.2134
      CHANNELS 6 Xposition Yposition Zposition Zrotation Xrotation Yrotation
      JOINT chest
      {
        OFFSET 0 13.134 -3.2573
        CHANNELS 6 Xposition Yposition Zposition Zrotation Xrotation Yrotation
        JOINT neck
        {
          OFFSET 0 20.686 -1.6905
          CHANNELS 6 Xposition Yposition Zposition Zrotation Xrotation Yrotation
          JOINT head
          {
            OFFSET 0 7.238 -0.1237
            CHANNELS 6 Xposition Yposition Zposition Zrotation Xrotation Yrotation
            End Site
            {
              OFFSET 0 0 0
            }
          }
        }
        JOINT lCollar
        {
          OFFSET 1.7069 20.075 5.0056
          CHANNELS 6 Xposition Yposition Zposition Zrotation Xrotation Yrotation
          JOINT lShldr
          {
            OFFSET 13.6458 -0.047 -4.849
            CHANNELS 6 Xposition Yposition Zposition Zrotation Xrotation Yrotation
            JOINT lForeArm
            {
              OFFSET 28.3255 -0.9759 2.2888
              CHANNELS 6 Xposition Yposition Zposition Zrotation Xrotation Yrotation
              JOINT lHand
              {
                OFFSET 22.1583 -0.53 10.8316
                CHANNELS 6 Xposition Yposition Zposition Zrotation Xrotation Yrotation
                JOINT lThumb1
                {
                  OFFSET 0.786 0.112 2.5817
                  CHANNELS 6 Xposition Yposition Zposition Zrotation Xrotation Yrotation
                  JOINT lThumb2
                  {
                    OFFSET 0.3601 -0.878 4.2331
                    CHANNELS 6 Xposition Yposition Zposition Zrotation Xrotation Yrotation
                    JOINT lThumb2_End
                    {
                      OFFSET 1.8127 -1.216 2.2227
                      CHANNELS 6 Xposition Yposition Zposition Zrotation Xrotation Yrotation
                      End Site
                      {
                        OFFSET 0.0181 -0.0122 0.0222
                      }
                    }
                  }
                }
                JOINT lCarpal1
                {
                  OFFSET 0.9571 1.114 1.7695
                  CHANNELS 6 Xposition Yposition Zposition Zrotation Xrotation Yrotation
                  JOINT lIndex1
                  {
                    OFFSET 4.1246 0.487 4.1451
                    CHANNELS 6 Xposition Yposition Zposition Zrotation Xrotation Yrotation
                    JOINT lIndex2
                    {
                      OFFSET 3.4052 -1.454 2.7682
                      CHANNELS 6 Xposition Yposition Zposition Zrotation Xrotation Yrotation
                      JOINT lIndex2_End
                      {
                        OFFSET 1.4531 -1.795 1.2713
                        CHANNELS 6 Xposition Yposition Zposition Zrotation Xrotation Yrotation
                        End Site
                        {
                          OFFSET 0.0145 -0.0179 0.0127
                        }
                      }
                    }
                  }
                  JOINT lMid1
                  {
                    OFFSET 5.6954 0.21 2.1184
                    CHANNELS 6 Xposition Yposition Zposition Zrotation Xrotation Yrotation
                    JOINT lMid2
                    {
                      OFFSET 3.9766 -1.54 2.3863
                      CHANNELS 6 Xposition Yposition Zposition Zrotation Xrotation Yrotation
                      JOINT lMid2_End
                      {
                        OFFSET 1.4042 -1.926 1.125
                        CHANNELS 6 Xposition Yposition Zposition Zrotation Xrotation Yrotation
                        End Site
                        {
                          OFFSET 0.014 -0.0193 0.0113
                        }
                      }
                    }
                  }
                }
                JOINT lCarpal2
                {
                  OFFSET 2.0956 0.66 -0.3894
                  CHANNELS 6 Xposition Yposition Zposition Zrotation Xrotation Yrotation
                  JOINT lRing1
                  {
                    OFFSET 5.0395 -0.09 2.4971
                    CHANNELS 6 Xposition Yposition Zposition Zrotation Xrotation Yrotation
                    JOINT lRing2
                    {
                      OFFSET 3.7921 -1.552 1.4806
                      CHANNELS 6 Xposition Yposition Zposition Zrotation Xrotation Yrotation
                      JOINT lRing2_End
                      {
                        OFFSET 1.4655 -1.808 0.9609
                        CHANNELS 6 Xposition Yposition Zposition Zrotation Xrotation Yrotation
                        End Site
                        {
                          OFFSET 0.0147 -0.0181 0.0096
                        }
                      }
                    }
                  }
                  JOINT lPinky1
                  {
                    OFFSET 4.9141 -1.269 0.3591
                    CHANNELS 6 Xposition Yposition Zposition Zrotation Xrotation Yrotation
                    JOINT lPinky2
                    {
                      OFFSET 3.1477 -1.685 0.8462
                      CHANNELS 6 Xposition Yposition Zposition Zrotation Xrotation Yrotation
                      JOINT lPinky2_End
                      {
                        OFFSET 0.8055 -1.585 0.7955
                        CHANNELS 6 Xposition Yposition Zposition Zrotation Xrotation Yrotation
                        End Site
                        {
                          OFFSET 0.0081 -0.0158 0.008
                        }
                      }
                    }
                  }
                }
              }
            }
          }
        }
        JOINT rCollar
        {
          OFFSET -1.7069 20.075 5.0056
          CHANNELS 6 Xposition Yposition Zposition Zrotation Xrotation Yrotation
          JOINT rShldr
          {
            OFFSET -13.6458 -0.047 -4.849
            CHANNELS 6 Xposition Yposition Zposition Zrotation Xrotation Yrotation
            JOINT rForeArm
            {
              OFFSET -28.3255 -0.9759 2.2888
              CHANNELS 6 Xposition Yposition Zposition Zrotation Xrotation Yrotation
              JOINT rHand
              {
                OFFSET -22.1583 -0.53 10.8316
                CHANNELS 6 Xposition Yposition Zposition Zrotation Xrotation Yrotation
                JOINT rThumb1
                {
                  OFFSET -0.786 0.112 2.5817
                  CHANNELS 6 Xposition Yposition Zposition Zrotation Xrotation Yrotation
                  JOINT rThumb2
                  {
                    OFFSET -0.3601 -0.878 4.2331
                    CHANNELS 6 Xposition Yposition Zposition Zrotation Xrotation Yrotation
                    JOINT rThumb2_End
                    {
                      OFFSET -1.8127 -1.216 2.2227
                      CHANNELS 6 Xposition Yposition Zposition Zrotation Xrotation Yrotation
                      End Site
                      {
                        OFFSET -0.0181 -0.0122 0.0222
                      }
                    }
                  }
                }
                JOINT rCarpal1
                {
                  OFFSET -0.9571 1.114 1.7695
                  CHANNELS 6 Xposition Yposition Zposition Zrotation Xrotation Yrotation
                  JOINT rIndex1
                  {
                    OFFSET -4.1246 0.487 4.1451
                    CHANNELS 6 Xposition Yposition Zposition Zrotation Xrotation Yrotation
                    JOINT rIndex2
                    {
                      OFFSET -3.4052 -1.454 2.7682
                      CHANNELS 6 Xposition Yposition Zposition Zrotation Xrotation Yrotation
                      JOINT rIndex2_End
                      {
                        OFFSET -1.4531 -1.795 1.2713
                        CHANNELS 6 Xposition Yposition Zposition Zrotation Xrotation Yrotation
                        End Site
                        {
                          OFFSET -0.0145 -0.018 0.0127
                        }
                      }
                    }
                  }
                  JOINT rMid1
                  {
                    OFFSET -5.6954 0.21 2.1184
                    CHANNELS 6 Xposition Yposition Zposition Zrotation Xrotation Yrotation
                    JOINT rMid2
                    {
                      OFFSET -3.9766 -1.54 2.3863
                      CHANNELS 6 Xposition Yposition Zposition Zrotation Xrotation Yrotation
                      JOINT rMid2_End
                      {
                        OFFSET -1.4042 -1.926 1.125
                        CHANNELS 6 Xposition Yposition Zposition Zrotation Xrotation Yrotation
                        End Site
                        {
                          OFFSET -0.014 -0.0193 0.0113
                        }
                      }
                    }
                  }
                }
                JOINT rCarpal2
                {
                  OFFSET -2.0956 0.66 -0.3894
                  CHANNELS 6 Xposition Yposition Zposition Zrotation Xrotation Yrotation
                  JOINT rRing1
                  {
                    OFFSET -5.0395 -0.09 2.4971
                    CHANNELS 6 Xposition Yposition Zposition Zrotation Xrotation Yrotation
                    JOINT rRing2
                    {
                      OFFSET -3.7921 -1.552 1.4806
                      CHANNELS 6 Xposition Yposition Zposition Zrotation Xrotation Yrotation
                      JOINT rRing2_End
                      {
                        OFFSET -1.4655 -1.808 0.9609
                        CHANNELS 6 Xposition Yposition Zposition Zrotation Xrotation Yrotation
                        End Site
                        {
                          OFFSET -0.0147 -0.0181 0.0096
                        }
                      }
                    }
                  }
                  JOINT rPinky1
                  {
                    OFFSET -4.9141 -1.269 0.3592
                    CHANNELS 6 Xposition Yposition Zposition Zrotation Xrotation Yrotation
                    JOINT rPinky2
                    {
                      OFFSET -3.1477 -1.685 0.8462
                      CHANNELS 6 Xposition Yposition Zposition Zrotation Xrotation Yrotation
                      JOINT rPinky2_End
                      {
                        OFFSET -0.8055 -1.585 0.7955
                        CHANNELS 6 Xposition Yposition Zposition Zrotation Xrotation Yrotation
                        End Site
                        {
                          OFFSET -0.0081 -0.0158 0.008
                        }
                      }
                    }
                  }
                }
              }
            }
          }
        }
      }
    }
  }
  JOINT lThigh
  {
    OFFSET 8.367 -8.2066 0.5982
    CHANNELS 6 Xposition Yposition Zposition Zrotation Xrotation Yrotation
    JOINT lShin
    {
      OFFSET 2.1923 -43.463 -0.4932
      CHANNELS 6 Xposition Yposition Zposition Zrotation Xrotation Yrotation
      JOINT lFoot
      {
        OFFSET 0.7333 -45.8593 -2.6451
        CHANNELS 6 Xposition Yposition Zposition Zrotation Xrotation Yrotation
        End Site
        {
          OFFSET 2.6618 -4.2699 12.3931
        }
      }
    }
  }
  JOINT rThigh
  {
    OFFSET -8.367 -8.2066 0.5982
    CHANNELS 6 Xposition Yposition Zposition Zrotation Xrotation Yrotation
    JOINT rShin
    {
      OFFSET -2.1923 -43.463 -0.4931
      CHANNELS 6 Xposition Yposition Zposition Zrotation Xrotation Yrotation
      JOINT rFoot
      {
        OFFSET -0.7333 -45.8593 -2.6451
        CHANNELS 6 Xposition Yposition Zposition Zrotation Xrotation Yrotation
        End Site
        {
          OFFSET -2.6618 -4.2699 12.3931
        }
      }
    }
  }
}
MOTION
Frames:	4
Frame Time:	0.0333333
42.3108 26.533 36.5725 2.28811e-014 65.274 1e-006 0 -1.186 -1.5018 -0.327325 16.2479 -0.0873392 7.10543e-015 9.964 0.2134 -0.67094 32.4959 -0.0781703 -7.10543e-015 13.134 -3.2573 -0.67094 32.4959 -0.0781699 -7.10543e-015 20.686 -1.6905 -11.091 -29.7328 40.6877 0 7.238 -0.1237 15.373 -18.8012 23.5729 1.7069 20.075 5.0056 -7.16835 -6.03206 -4.58943 13.6458 -0.047 -4.849 -79.3207 -14.6566 -77.3744 28.3255 -0.9759 2.2888 55.0557 65.4681 -88.2384 22.1583 -0.53 10.8316 -69.0646 17.6668 -20.3898 0.786 0.112 2.5817 -1.59028e-015 3.97569e-015 -3.18055e-015 0.3601 -0.878 4.2331 7.95139e-016 3.18055e-015 -3.18055e-015 1.8127 -1.216 2.2227 -5.56597e-015 1.59028e-015 -0 0.9571 1.114 1.7695 -1.59028e-015 4.77083e-015 -3.18055e-015 4.1246 0.487 4.1451 3.97569e-015 3.18055e-015 6.36111e-015 3.4052 -1.454 2.7682 0 0 -3.18055e-015 1.4531 -1.795 1.2713 -7.95139e-016 0 -3.18055e-015 5.6954 0.21 2.1184 3.97569e-015 3.18055e-015 6.36111e-015 3.9766 -1.54 2.3863 0 0 -3.18055e-015 1.4042 -1.926 1.125 -7.95139e-016 0 -3.18055e-015 2.0956 0.66 -0.3894 -1.59028e-015 4.77083e-015 -3.18055e-015 5.0395 -0.09 2.4971 3.97569e-015 3.18055e-015 6.36111e-015 3.7921 -1.552 1.4806 0 0 -3.18055e-015 1.4655 -1.808 0.9609 -7.95139e-016 0 -3.18055e-015 4.9141 -1.269 0.3591 3.97569e-015 3.18055e-015 6.36111e-015 3.1477 -1.685 0.8462 0 0 -3.18055e-015 0.8055 -1.585 0.7955 -7.95139e-016 0 -3.18055e-015 -1.7069 20.075 5.0056 7.72738 -6.67832 8.43062 -13.6458 -0.047 -4.849 79.3318 -14.5438 78.0884 -28.3255 -0.9759 2.2888 -55.8998 65.879 82.7732 -22.1583 -0.53 10.8316 66.8799 19.3771 21.652 -0.786 0.112 2.5817 7.95139e-016 5.56597e-015 3.18055e-015 -0.3601 -0.878 4.2331 1.59028e-015 0 3.18055e-015 -1.8127 -1.216 2.2227 -3.18055e-015 -7.95139e-016 -3.18055e-015 -0.9571 1.114 1.7695 7.95139e-016 4.77083e-015 3.18055e-015 -4.1246 0.487 4.1451 -1.59028e-015 -1.11319e-014 1.27222e-014 -3.4052 -1.454 2.7682 1.76556e-031 -1.59028e-015 6.36111e-015 -1.4531 -1.795 1.2713 -1.59028e-015 0 6.36111e-015 -5.6954 0.21 2.1184 -1.59028e-015 -1.11319e-014 1.27222e-014 -3.9766 -1.54 2.3863 1.76556e-031 -1.59028e-015 6.36111e-015 -1.4042 -1.926 1.125 -1.59028e-015 0 6.36111e-015 -2.0956 0.66 -0.3894 7.95139e-016 4.77083e-015 3.18055e-015 -5.0395 -0.09 2.4971 -1.59028e-015 -1.11319e-014 1.27222e-014 -3.7921 -1.552 1.4806 1.76556e-031 -1.59028e-015 6.36111e-015 -1.4655 -1.808 0.9609 -1.59028e-015 0 6.36111e-015 -4.9141 -1.269 0.3592 -1.59028e-015 -1.11319e-014 1.27222e-014 -3.1477 -1.685 0.8462 1.76556e-031 -1.59028e-015 6.36111e-015 -0.8055 -1.585 0.7955 -1.59028e-015 0 6.36111e-015 8.367 -8.2066 0.5982 -168.308 -58.3063 -162.886 2.1923 -43.463 -0.4932 175.619 27.4237 -162.738 0.7333 -45.8593 -2.6451 -10.2848 1.94893 -13.8695 -8.367 -8.2066 0.5982 168.312 -58.3189 162.895 -2.1923 -43.463 -0.4931 -175.604 27.4308 162.726 -0.7333 -45.8593 -2.6451 10.2868 1.93612 13.87 
42.3108 26.5587 36.5106 -6.1539e-014 65.0489 1e-006 0 -1.186 -1.5018 -0.327513 16.3229 -0.0867923 -7.10543e-015 9.964 0.2134 -0.671826 32.646 -0.0763958 7.10543e-015 13.134 -3.2573 -0.671826 32.646 -0.0763955 0 20.686 -1.6905 -11.3546 -29.7594 40.5488 0 7.238 -0.1237 15.1927 -18.5734 23.4517 1.7069 20.075 5.0056 -7.16102 -6.01426 -4.58819 13.6458 -0.047 -4.849 -79.3207 -14.6566 -77.3744 28.3255 -0.9759 2.2888 55.0106 65.4344 -88.3792 22.1583 -0.53 10.8316 -69.1146 17.4954 -20.2246 0.786 0.112 2.5817 2.66685e-006 -2.0574e-006 -5.60377e-008 0.3601 -0.878 4.2331 -8.82781e-032 -7.95139e-016 -6.36111e-015 1.8127 -1.216 2.2227 -3.27219e-007 -7.48517e-007 -2.43676e-007 0.9571 1.114 1.7695 -3.97569e-015 4.77083e-015 -3.18055e-015 4.1246 0.487 4.1451 2.66685e-006 -2.0574e-006 -5.60376e-008 3.4052 -1.454 2.7682 -3.18055e-015 -7.95139e-016 6.36111e-015 1.4531 -1.795 1.2713 -3.27219e-007 -7.48517e-007 -2.43676e-007 5.6954 0.21 2.1184 2.66685e-006 -2.0574e-006 -5.60376e-008 3.9766 -1.54 2.3863 -3.18055e-015 -7.95139e-016 6.36111e-015 1.4042 -1.926 1.125 -3.27219e-007 -7.48517e-007 -2.43676e-007 2.0956 0.66 -0.3894 -3.97569e-015 4.77083e-015 -3.18055e-015 5.0395 -0.09 2.4971 2.66685e-006 -2.0574e-006 -5.60376e-008 3.7921 -1.552 1.4806 -3.18055e-015 -7.95139e-016 6.36111e-015 1.4655 -1.808 0.9609 -3.27219e-007 -7.48517e-007 -2.43676e-007 4.9141 -1.269 0.3591 2.66685e-006 -2.0574e-006 -5.60376e-008 3.1477 -1.685 0.8462 -3.18055e-015 -7.95139e-016 6.36111e-015 0.8055 -1.585 0.7955 -3.27219e-007 -7.48517e-007 -2.43676e-007 -1.7069 20.075 5.0056 7.78059 -6.82775 8.25724 -13.6458 -0.047 -4.849 79.3319 -14.5439 78.0884 -28.3255 -0.9759 2.2888 -55.7561 65.7673 83.11 -22.1583 -0.53 10.8316 67.0546 19.11 21.412 -0.786 0.112 2.5817 6.83648e-006 2.54855e-006 1.02939e-006 -0.3601 -0.878 4.2331 -6.83648e-006 -2.54855e-006 -1.02939e-006 -1.8127 -1.216 2.2227 6.83648e-006 2.54855e-006 1.02939e-006 -0.9571 1.114 1.7695 -0 -7.95139e-015 -0 -4.1246 0.487 4.1451 6.83648e-006 2.54855e-006 1.02939e-006 -3.4052 -1.454 2.7682 -6.83648e-006 -2.54855e-006 -1.02939e-006 -1.4531 -1.795 1.2713 6.83648e-006 2.54855e-006 1.02939e-006 -5.6954 0.21 2.1184 6.83648e-006 2.54855e-006 1.02939e-006 -3.9766 -1.54 2.3863 -6.83648e-006 -2.54855e-006 -1.02939e-006 -1.4042 -1.926 1.125 6.83648e-006 2.54855e-006 1.02939e-006 -2.0956 0.66 -0.3894 -0 -7.95139e-015 -0 -5.0395 -0.09 2.4971 6.83648e-006 2.54855e-006 1.02939e-006 -3.7921 -1.552 1.4806 -6.83648e-006 -2.54855e-006 -1.02939e-006 -1.4655 -1.808 0.9609 6.83648e-006 2.54855e-006 1.02939e-006 -4.9141 -1.269 0.3592 6.83648e-006 2.54855e-006 1.02939e-006 -3.1477 -1.685 0.8462 -6.83648e-006 -2.54855e-006 -1.02939e-006 -0.8055 -1.585 0.7955 6.83648e-006 2.54855e-006 1.02939e-006 8.367 -8.2066 0.5982 -168.309 -58.3074 -162.886 2.1923 -43.463 -0.4932 175.619 27.423 -162.738 0.7333 -45.8593 -2.6451 -10.2842 1.94719 -13.8697 -8.367 -8.2066 0.5982 168.313 -58.32 162.896 -2.1923 -43.463 -0.4931 -175.605 27.43 162.726 -0.7333 -45.8593 -2.6451 10.2863 1.93426 13.8703 
42.3108 26.5843 36.4485 -5.41268e-014 64.8237 1e-006 0 -1.186 -1.5018 -0.327701 16.3979 -0.0862454 -7.10543e-015 9.964 0.2134 -0.672719 32.796 -0.0746165 -7.10543e-015 13.134 -3.2573 -0.67272 32.796 -0.0746162 0 20.686 -1.6905 -11.6184 -29.7861 40.4096 0 7.238 -0.1237 15.0132 -18.3453 23.3314 1.7069 20.075 5.0056 -7.1537 -5.99649 -4.58695 13.6458 -0.047 -4.849 -79.3207 -14.6566 -77.3744 28.3255 -0.9759 2.2888 54.9655 65.4007 -88.5199 22.1583 -0.53 10.8316 -69.164 17.3239 -20.0597 0.786 0.112 2.5817 7.13129e-007 -1.68996e-006 2.55932e-006 0.3601 -0.878 4.2331 2.66596e-006 -2.05804e-006 -6.00647e-008 1.8127 -1.216 2.2227 1.95283e-006 -3.68078e-007 -2.61938e-006 0.9571 1.114 1.7695 -3.97569e-015 1.59028e-015 6.36111e-015 4.1246 0.487 4.1451 7.13129e-007 -1.68996e-006 2.55932e-006 3.4052 -1.454 2.7682 2.66596e-006 -2.05804e-006 -6.00647e-008 1.4531 -1.795 1.2713 1.95283e-006 -3.68078e-007 -2.61938e-006 5.6954 0.21 2.1184 7.13129e-007 -1.68996e-006 2.55932e-006 3.9766 -1.54 2.3863 2.66596e-006 -2.05804e-006 -6.00647e-008 1.4042 -1.926 1.125 1.95283e-006 -3.68078e-007 -2.61938e-006 2.0956 0.66 -0.3894 -3.97569e-015 1.59028e-015 6.36111e-015 5.0395 -0.09 2.4971 7.13129e-007 -1.68996e-006 2.55932e-006 3.7921 -1.552 1.4806 2.66596e-006 -2.05804e-006 -6.00647e-008 1.4655 -1.808 0.9609 1.95283e-006 -3.68078e-007 -2.61938e-006 4.9141 -1.269 0.3591 7.13129e-007 -1.68996e-006 2.55932e-006 3.1477 -1.685 0.8462 2.66596e-006 -2.05804e-006 -6.00647e-008 0.8055 -1.585 0.7955 1.95283e-006 -3.68078e-007 -2.61938e-006 -1.7069 20.075 5.0056 7.83335 -6.97733 8.08396 -13.6458 -0.047 -4.849 79.3319 -14.5438 78.0884 -28.3255 -0.9759 2.2888 -55.6114 65.6559 83.4461 -22.1583 -0.53 10.8316 67.2279 18.8422 21.1732 -0.786 0.112 2.5817 -1.57852e-006 -1.31784e-006 -1.80673e-007 -0.3601 -0.878 4.2331 1.74769e-007 -3.72122e-007 1.11872e-007 -1.8127 -1.216 2.2227 -1.04892e-006 -8.24552e-007 1.92983e-007 -0.9571 1.114 1.7695 -3.97569e-015 -8.74653e-015 -3.18055e-015 -4.1246 0.487 4.1451 -1.57852e-006 -1.31784e-006 -1.80673e-007 -3.4052 -1.454 2.7682 1.74769e-007 -3.72122e-007 1.11872e-007 -1.4531 -1.795 1.2713 -1.04892e-006 -8.24552e-007 1.92983e-007 -5.6954 0.21 2.1184 -1.57852e-006 -1.31784e-006 -1.80673e-007 -3.9766 -1.54 2.3863 1.74769e-007 -3.72122e-007 1.11872e-007 -1.4042 -1.926 1.125 -1.04892e-006 -8.24552e-007 1.92983e-007 -2.0956 0.66 -0.3894 -3.97569e-015 -8.74653e-015 -3.18055e-015 -5.0395 -0.09 2.4971 -1.57852e-006 -1.31784e-006 -1.80673e-007 -3.7921 -1.552 1.4806 1.74769e-007 -3.72122e-007 1.11872e-007 -1.4655 -1.808 0.9609 -1.04892e-006 -8.24552e-007 1.92983e-007 -4.9141 -1.269 0.3592 -1.57852e-006 -1.31784e-006 -1.80673e-007 -3.1477 -1.685 0.8462 1.74769e-007 -3.72122e-007 1.11872e-007 -0.8055 -1.585 0.7955 -1.04892e-006 -8.24552e-007 1.92983e-007 8.367 -8.2066 0.5982 -168.309 -58.3121 -162.886 2.1923 -43.463 -0.4932 175.618 27.4257 -162.738 0.7333 -45.8593 -2.6451 -10.2837 1.94524 -13.87 -8.367 -8.2066 0.5982 168.313 -58.3245 162.896 -2.1923 -43.463 -0.4931 -175.604 27.4325 162.726 -0.7333 -45.8593 -2.6451 10.2857 1.93231 13.8706 
42.3108 26.6099 36.3864 3.60646e-015 64.5986 1e-006 0 -1.186 -1.5018 -0.32789 16.4729 -0.0856985 0 9.964 0.2134 -0.673619 32.946 -0.0728325 0 13.134 -3.2573 -0.67362 32.946 -0.0728322 0 20.686 -1.6905 -11.8822 -29.8117 40.2704 -7.10543e-015 7.238 -0.1237 14.8344 -18.1168 23.2119 1.7069 20.075 5.0056 -7.14638 -5.97869 -4.58572 13.6458 -0.047 -4.849 -79.3207 -14.6566 -77.3744 28.3255 -0.9759 2.2888 54.9202 65.3671 -88.6605 22.1583 -0.53 10.8316 -69.2129 17.1522 -19.895 0.786 0.112 2.5817 3.18055e-015 -1.59028e-015 -1.27222e-014 0.3601 -0.878 4.2331 -2.38542e-015 2.38542e-015 -6.36111e-015 1.8127 -1.216 2.2227 -3.97569e-015 0 -0 0.9571 1.114 1.7695 3.18055e-015 -2.38542e-015 -1.27222e-014 4.1246 0.487 4.1451 6.36111e-015 7.15625e-015 3.18055e-015 3.4052 -1.454 2.7682 -3.18055e-015 -7.15625e-015 -1.27222e-014 1.4531 -1.795 1.2713 -7.95139e-015 7.95139e-016 -3.18055e-015 5.6954 0.21 2.1184 6.36111e-015 7.15625e-015 3.18055e-015 3.9766 -1.54 2.3863 -3.18055e-015 -7.15625e-015 -1.27222e-014 1.4042 -1.926 1.125 -7.95139e-015 7.95139e-016 -3.18055e-015 2.0956 0.66 -0.3894 3.18055e-015 -2.38542e-015 -1.27222e-014 5.0395 -0.09 2.4971 6.36111e-015 7.15625e-015 3.18055e-015 3.7921 -1.552 1.4806 -3.18055e-015 -7.15625e-015 -1.27222e-014 1.4655 -1.808 0.9609 -7.95139e-015 7.95139e-016 -3.18055e-015 4.9141 -1.269 0.3591 6.36111e-015 7.15625e-015 3.18055e-015 3.1477 -1.685 0.8462 -3.18055e-015 -7.15625e-015 -1.27222e-014 0.8055 -1.585 0.7955 -7.95139e-015 7.95139e-016 -3.18055e-015 -1.7069 20.075 5.0056 7.88567 -7.12705 7.91076 -13.6458 -0.047 -4.849 79.3319 -14.5438 78.0884 -28.3255 -0.9759 2.2888 -55.4658 65.5449 83.7814 -22.1583 -0.53 10.8316 67.3996 18.5737 20.9356 -0.786 0.112 2.5817 -2.62659e-006 -2.14407e-006 1.26262e-008 -0.3601 -0.878 4.2331 3.49983e-007 -7.44142e-007 2.23421e-007 -1.8127 -1.216 2.2227 -2.97657e-006 -1.39993e-006 -2.10795e-007 -0.9571 1.114 1.7695 2.38542e-015 7.95139e-015 -6.36111e-015 -4.1246 0.487 4.1451 -2.62659e-006 -2.14407e-006 1.26262e-008 -3.4052 -1.454 2.7682 3.49983e-007 -7.44142e-007 2.23421e-007 -1.4531 -1.795 1.2713 -2.97657e-006 -1.39993e-006 -2.10795e-007 -5.6954 0.21 2.1184 -2.62659e-006 -2.14407e-006 1.26262e-008 -3.9766 -1.54 2.3863 3.49983e-007 -7.44142e-007 2.23421e-007 -1.4042 -1.926 1.125 -2.97657e-006 -1.39993e-006 -2.10795e-007 -2.0956 0.66 -0.3894 2.38542e-015 7.95139e-015 -6.36111e-015 -5.0395 -0.09 2.4971 -2.62659e-006 -2.14407e-006 1.26262e-008 -3.7921 -1.552 1.4806 3.49983e-007 -7.44142e-007 2.23421e-007 -1.4655 -1.808 0.9609 -2.97657e-006 -1.39993e-006 -2.10795e-007 -4.9141 -1.269 0.3592 -2.62659e-006 -2.14407e-006 1.26262e-008 -3.1477 -1.685 0.8462 3.49983e-007 -7.44142e-007 2.23421e-007 -0.8055 -1.585 0.7955 -2.97657e-006 -1.39993e-006 -2.10795e-007 8.367 -8.2066 0.5982 -168.31 -58.3124 -162.887 2.1923 -43.463 -0.4932 175.619 27.424 -162.738 0.7333 -45.8593 -2.6451 -10.2831 1.94323 -13.8704 -8.367 -8.2066 0.5982 168.315 -58.3249 162.897 -2.1923 -43.463 -0.4931 -175.604 27.4309 162.726 -0.7333 -45.8593 -2.6451 10.2851 1.93035 13.8709 
